<svg xmlns="http://www.w3.org/2000/svg" viewBox="0 0 100 100">
  <defs>
    <radialGradient id="head" cx="50%" cy="40%" r="50%">
      <stop offset="0%" stop-color="#ff9966"/>
      <stop offset="100%" stop-color="#ff6600"/>
    </radialGradient>
    <clipPath id="ballClip">
      <circle cx="50" cy="18" r="13"/>
    </clipPath>
  </defs>

  <!-- Tentacles -->
  <path d="M25 65 Q10 80 15 95 Q18 100 22 95 Q25 85 30 70" fill="#ff6600" stroke="#cc5500" stroke-width="1"/>
  <path d="M35 70 Q25 88 28 98 Q30 102 34 97 Q36 85 40 72" fill="#ff6600" stroke="#cc5500" stroke-width="1"/>
  <path d="M45 72 Q40 90 42 100 Q44 103 47 98 Q48 88 50 74" fill="#ff6600" stroke="#cc5500" stroke-width="1"/>
  <path d="M55 72 Q58 90 56 100 Q54 103 52 98 Q52 88 50 74" fill="#ff6600" stroke="#cc5500" stroke-width="1"/>
  <path d="M65 70 Q75 88 72 98 Q70 102 66 97 Q64 85 60 72" fill="#ff6600" stroke="#cc5500" stroke-width="1"/>
  <path d="M75 65 Q90 80 85 95 Q82 100 78 95 Q75 85 70 70" fill="#ff6600" stroke="#cc5500" stroke-width="1"/>

  <!-- Head -->
  <ellipse cx="50" cy="45" rx="28" ry="25" fill="url(#head)" stroke="#cc5500" stroke-width="1.5"/>

  <!-- Eyes -->
  <ellipse cx="40" cy="40" rx="6" ry="7" fill="white"/>
  <ellipse cx="60" cy="40" rx="6" ry="7" fill="white"/>
  <circle cx="41" cy="40" r="3.5" fill="#333"/>
  <circle cx="61" cy="40" r="3.5" fill="#333"/>
  <circle cx="42" cy="38" r="1.5" fill="white"/>
  <circle cx="62" cy="38" r="1.5" fill="white"/>

  <!-- Mouth (funny smile) -->
  <path d="M42 52 Q50 60 58 52" fill="none" stroke="#333" stroke-width="2" stroke-linecap="round"/>

  <!-- Cheeks -->
  <ellipse cx="34" cy="50" rx="4" ry="3" fill="#ff4444" opacity="0.3"/>
  <ellipse cx="66" cy="50" rx="4" ry="3" fill="#ff4444" opacity="0.3"/>

  <!-- Trionda-style ball on top (World Cup 2026) -->
  <g clip-path="url(#ballClip)">
    <!-- Base circle -->
    <circle cx="50" cy="18" r="13" fill="#ffffff" stroke="#999" stroke-width="1"/>
    <!-- Red wave (Canada) -->
    <path d="M38 8 Q43 14 40 22 Q37 28 42 31 L48 28 Q44 22 47 14 Q50 8 48 5Z" fill="#e63946"/>
    <!-- Green wave (Mexico) -->
    <path d="M48 5 Q50 10 54 6 L58 10 Q55 14 57 20 L51 22 Q50 16 48 12Z" fill="#2d6a4f"/>
    <!-- Blue wave (USA) -->
    <path d="M56 8 Q60 12 62 8 L65 14 Q62 18 63 24 L57 26 Q55 22 53 15Z" fill="#1d3557"/>
    <!-- Gold accent ring -->
    <circle cx="50" cy="18" r="11" fill="none" stroke="#d4af37" stroke-width="1.2"/>
    <!-- Center triangle (unity) -->
    <polygon points="50,11 54,16 46,16" fill="#d4af37" opacity="0.8"/>
    <!-- Small stars (USA) -->
    <polygon points="56,10 57,11 58,10 57.5,12 58.5,12 57.5,13 58,14 57,13 56,14 56.5,13 55.5,12 56.5,12" fill="#ffffff" opacity="0.7"/>
    <polygon points="40,20 40.7,20.5 41,20 40.8,21 41.3,21 40.8,22 41,23 40.3,22 39.5,23 40,22 39.5,21 40,21" fill="#ffffff" opacity="0.7"/>
    <!-- Maple leaf hint (Canada) -->
    <path d="M42 12 L43 10 L44 12 L45 11 L44 13 L46 14 L44 14 L44 16 L43 15 L42 16 L42 14 L40 14 L42 13 L41 11Z" fill="#ffffff" opacity="0.5"/>
  </g>
</svg>
